<svg xmlns="http://www.w3.org/2000/svg" xmlns:svg="http://www.w3.org/2000/svg" id="svg4846" width="99.936" height="37.672" x="0" y="0" enable-background="new 0 0 100 100" version="1.1" viewBox="0 0 99.936 37.672" xml:space="preserve"><metadata id="metadata4862"/><g id="g4848" transform="translate(-0.031,-31.165)"><path id="path4850" d="m 99.9,43.743 c -0.186,-0.75 -0.773,-1.339 -1.523,-1.524 l -0.068,-0.067 -3.572,0 0,-7.325 c 0,-2.02 -1.645,-3.662 -3.662,-3.662 l -87.382,0 c -2.018,0 -3.662,1.643 -3.662,3.662 l 0,30.347 c 0,2.02 1.645,3.663 3.662,3.663 l 87.381,0 c 2.018,0 3.662,-1.644 3.662,-3.663 l 0,-7.324 3.572,0 0.068,-0.068 c 0.75,-0.186 1.338,-0.773 1.523,-1.524 l 0.068,-0.067 0,-12.38 -0.067,-0.068 z m -7.257,21.43 c 0,0.865 -0.703,1.569 -1.568,1.569 l -87.382,0 c -0.865,0 -1.568,-0.704 -1.568,-1.569 l 0,-30.347 c 0,-0.866 0.703,-1.57 1.568,-1.57 l 87.381,0 c 0.865,0 1.568,0.704 1.568,1.57 l 0,7.325 0,15.697 0,7.325 z"/><path id="path4852" d="M 64.723,48.533 64.434,48.46 56.143,46.387 42.752,43.042 42.488,42.974 c -0.016,-0.006 -0.035,-0.006 -0.053,-0.006 -0.428,0 -0.773,0.348 -0.773,0.776 l 0,6.263 -11.291,0 c -0.432,0 -0.777,0.348 -0.777,0.776 0,0.33 0.203,0.609 0.492,0.724 0.041,0.015 0.082,0.026 0.129,0.037 0.004,0 0.004,0 0.01,0 l 8.334,2.085 13.551,3.387 c 0.045,0.01 0.102,0.016 0.154,0.016 0.43,0 0.775,-0.348 0.775,-0.776 l 0,-6.248 11.359,0 c 0.428,0 0.775,-0.346 0.775,-0.774 0.001,-0.312 -0.185,-0.583 -0.45,-0.701 z"/></g></svg>